<!DOCTYPE svg PUBLIC "-//W3C//DTD SVG 1.1//EN" "http://www.w3.org/Graphics/SVG/1.1/DTD/svg11.dtd">
<!-- Uploaded to: SVG Repo, www.svgrepo.com, Transformed by: SVG Repo Mixer Tools -->
<svg fill="#ffffff" height="800px" width="800px" version="1.1" id="Layer_1" xmlns="http://www.w3.org/2000/svg" xmlns:xlink="http://www.w3.org/1999/xlink" viewBox="0 0 512 512" xml:space="preserve" stroke="#ffffff">
<g id="SVGRepo_bgCarrier" stroke-width="0"/>
<g id="SVGRepo_tracerCarrier" stroke-linecap="round" stroke-linejoin="round"/>
<g id="SVGRepo_iconCarrier"> <g> <g> <g> <path d="M117.459,403.576c-18.267,0-33.129,14.861-33.129,33.129c0,18.268,14.862,33.129,33.129,33.129 c18.267,0,33.129-14.861,33.129-33.129C150.588,418.438,135.726,403.576,117.459,403.576z M117.459,451.765 c-8.304,0-15.059-6.755-15.059-15.059c0-8.304,6.755-15.059,15.059-15.059c8.304,0,15.059,6.755,15.059,15.059 C132.517,445.01,125.763,451.765,117.459,451.765z"/> <path d="M484.894,42.165h-54.212c-0.006,0-0.011,0.002-0.016,0.002c-4.62,0.002-8.544,3.512-8.981,8.193l-26.232,280.934H52.897 L19.609,120.47h361.68c4.991,0,9.035-4.045,9.035-9.035s-4.044-9.035-9.035-9.035H9.035c-2.642,0-5.153,1.156-6.869,3.166 s-2.467,4.668-2.055,7.279l36.141,228.894c0.693,4.391,4.479,7.626,8.924,7.626h348.589l-6.046,64.746 c-0.772,7.731-7.213,13.56-14.983,13.56h-6.563c-3.944-13.888-16.732-24.094-31.867-24.094s-27.923,10.206-31.867,24.094H177.694 c-4.991,0-9.035,4.045-9.035,9.035s4.044,9.035,9.035,9.035h124.745c3.944,13.888,16.732,24.094,31.867,24.094 s27.923-10.206,31.867-24.094h6.563c17.092,0,31.263-12.825,32.97-29.892l29.832-319.472h49.356 C499.84,96.376,512,84.217,512,69.271C512,54.324,499.84,42.165,484.894,42.165z M334.306,451.765 c-8.304,0-15.059-6.755-15.059-15.059c0-8.304,6.755-15.059,15.059-15.059c8.304,0,15.059,6.755,15.059,15.059 C349.364,445.01,342.61,451.765,334.306,451.765z M484.894,78.306h-47.668l1.688-18.071h45.98c4.983,0,9.035,4.053,9.035,9.035 S489.877,78.306,484.894,78.306z"/> <path d="M370.447,192.753c4.991,0,9.035-4.045,9.035-9.035s-4.044-9.035-9.035-9.035h-87.341v-27.106 c0-4.99-4.044-9.035-9.035-9.035c-4.991,0-9.035,4.045-9.035,9.035v27.106h-90.353v-27.106c0-4.99-4.044-9.035-9.035-9.035 c-4.991,0-9.035,4.045-9.035,9.035v27.106H57.223c-4.991,0-9.035,4.045-9.035,9.035s4.044,9.035,9.035,9.035h99.388v66.259H69.27 c-4.991,0-9.035,4.045-9.035,9.035s4.044,9.035,9.035,9.035h87.341v27.106c0,4.99,4.044,9.035,9.035,9.035 c4.991,0,9.035-4.045,9.035-9.035v-27.106h90.353v27.106c0,4.99,4.044,9.035,9.035,9.035c4.991,0,9.035-4.045,9.035-9.035 v-27.106H358.4c4.991,0,9.035-4.045,9.035-9.035s-4.044-9.035-9.035-9.035h-75.294v-66.259H370.447z M265.035,259.012h-90.353 v-66.259h90.353V259.012z"/> </g> </g> </g> </g>
</svg>